# xmcd
#
# Track frame offsets: 
#        150
#        20230
#        33350
#        47792
#        65905
#        80750
#        102655
#        120730
#        135165
#        156975
#        191790
#
# Disc length: 2791 seconds
#
# Revision: 2
# Processed by: cddbd v1.5.2PL0 Copyright (c) Steve Scherf et al.
# Submitted via: ExactAudioCopy v0.99pb5
#
DISCID=a20ae50b
DTITLE=Johnnie Taylor - Eargasm
DYEAR=1976
DGENRE=Soul
TTITLE0=Disco Lady
TTITLE1=Please Don't Stop (That Song From Playing)
TTITLE2=Don't Touch Her Body (If You Can't Touch Her Mind)
TTITLE3=I'm Gonna Keep On Loving You
TTITLE4=You're The Best Girl in The World
TTITLE5=Running Out Of Lies
TTITLE6=Sombody's Gettin' It
TTITLE7=It Don't Hurt Me Like It Used To
TTITLE8=Pick Up the Pieces
TTITLE9=Disco Lady (Extended Disco Version)
TTITLE10=Somebody's Gettin' It (Instrumental)
EXTD=
EXTT0=
EXTT1=
EXTT2=
EXTT3=
EXTT4=
EXTT5=
EXTT6=
EXTT7=
EXTT8=
EXTT9=
EXTT10=
PLAYORDER=
